PathFileType	4	(X/Y/Z)	pose_F01_0-90.trc
DataRate	CameraRate	NumFrames	NumMarkers	Units	OrigDataRate	OrigDataStartFrame	OrigNumFrames
30	30	9	21	m	30	0	90
Frame#	Time	CHip			RHip			RKnee			RAnkle			RBigToe			RSmallToe			RHeel			LHip			LKnee			LAnkle			LBigToe			LSmallToe			LHeel			Neck			Nose			RShoulder			RElbow			RWrist			LShoulder			LElbow			LWrist			
		X1	Y1	Z1	X2	Y2	Z2	X3	Y3	Z3	X4	Y4	Z4	X5	Y5	Z5	X6	Y6	Z6	X7	Y7	Z7	X8	Y8	Z8	X9	Y9	Z9	X10	Y10	Z10	X11	Y11	Z11	X12	Y12	Z12	X13	Y13	Z13	X14	Y14	Z14	X15	Y15	Z15	X16	Y16	Z16	X17	Y17	Z17	X18	Y18	Z18	X19	Y19	Z19	X20	Y20	Z20	X21	Y21	Z21	
0	0.0	-0.21434139987149714	1.817194130148713	-0.5762946742308618	-0.2285332164134978	1.81353750908888	-0.5127653022395527	-0.23251628727109297	1.6752450334311046	-0.492589421015543	-0.20764020311558662	1.5660263831942283	-0.49948442985905317	-0.24151813589566756	1.5265173219959016	-0.5045101073755103				-0.1958075424233134	1.5630145762922651	-0.4896745283001192	-0.2018043495542518	1.818192619574613	-0.6403844869977878	-0.19768177533115783	1.6813331190955576	-0.5965218428544035	-0.20576431438714105	1.5495477766418373	-0.5733531218884595	-0.2540269767124613	1.5136158133686586	-0.5864627836479713	-0.24109942990750016	1.519120241359646	-0.6028145933974264	-0.19687931580561097	1.5366501440662024	-0.5687845544584752	-1.6451504466574904	1.890589616716317	0.9820135792269213	-0.24401541419984024	2.0555664785110284	-0.6008220147212434	-1.8056654371699454	1.8932652965410206	1.2654813908080833	-0.2338754860274477	1.8857669351819397	-0.48437017400173143	-0.25235219571204554	1.8085329379813255	-0.48544668404889674	-1.5100507335486284	1.8888583190233426	0.7610084545865967	-0.1707373260109258	1.8970517153554984	-0.6894281031426498	-0.18773693481795287	1.818408482596983	-0.6890423104969706
1	0.03333333333333333	-0.21434139987149714	1.817194130148713	-0.5762946742308618	-0.2285332164134978	1.81353750908888	-0.5127653022395527	-0.23251628727109297	1.6752450334311046	-0.492589421015543	-0.20764020311558662	1.5660263831942283	-0.49948442985905317	-0.24151813589566756	1.5265173219959016	-0.5045101073755103				-0.1958075424233134	1.5630145762922651	-0.4896745283001192	-0.2018043495542518	1.818192619574613	-0.6403844869977878	-0.19768177533115783	1.6813331190955576	-0.5965218428544035	-0.20576431438714105	1.5495477766418373	-0.5733531218884595	-0.2540269767124613	1.5136158133686586	-0.5864627836479713	-0.24109942990750016	1.519120241359646	-0.6028145933974264	-0.19687931580561097	1.5366501440662024	-0.5687845544584752	-1.6550882422429536	1.890666983033875	0.9993013573011297	-0.24401541419984024	2.0555664785110284	-0.6008220147212434	-1.8059533985440708	1.8932876005937453	1.2660217965226617	-0.2338754860274477	1.8857669351819397	-0.48437017400173143	-0.25235219571204554	1.8085329379813255	-0.48544668404889674	-1.5100269091237697	1.8890086771190633	0.7609111642645515	-0.1707373260109258	1.8970517153554984	-0.6894281031426498	-0.18773693481795287	1.818408482596983	-0.6890423104969706
2	0.06666666666666667	-0.21434139987149714	1.817194130148713	-0.5762946742308618	-0.2285332164134978	1.81353750908888	-0.5127653022395527	-0.23251628727109297	1.6752450334311046	-0.492589421015543	-0.20764020311558662	1.5660263831942283	-0.49948442985905317	-0.24151813589566756	1.5265173219959016	-0.5045101073755103				-0.1958075424233134	1.5630145762922651	-0.4896745283001192	-0.2018043495542518	1.818192619574613	-0.6403844869977878	-0.19768177533115783	1.6813331190955576	-0.5965218428544035	-0.20576431438714105	1.5495477766418373	-0.5733531218884595	-0.2540269767124613	1.5136158133686586	-0.5864627836479713	-0.24109942990750016	1.519120241359646	-0.6028145933974264	-0.19687931580561097	1.5366501440662024	-0.5687845544584752	-1.6650260378284167	1.8907443493514329	1.016589135375338	-0.24401541419984024	2.0555664785110284	-0.6008220147212434	-1.8062413599181961	1.89330990464647	1.26656220223724	-0.2338754860274477	1.8857669351819397	-0.48437017400173143	-0.25235219571204554	1.8085329379813255	-0.48544668404889674	-1.510003084698911	1.889159035214784	0.7608138739425063	-0.1707373260109258	1.8970517153554984	-0.6894281031426498	-0.18773693481795287	1.818408482596983	-0.6890423104969706
3	0.1	-0.21434139987149714	1.817194130148713	-0.5762946742308618	-0.2285332164134978	1.81353750908888	-0.5127653022395527	-0.23251628727109297	1.6752450334311046	-0.492589421015543	-0.20764020311558662	1.5660263831942283	-0.49948442985905317	-0.24151813589566756	1.5265173219959016	-0.5045101073755103				-0.1958075424233134	1.5630145762922651	-0.4896745283001192	-0.2018043495542518	1.818192619574613	-0.6403844869977878	-0.19768177533115783	1.6813331190955576	-0.5965218428544035	-0.20576431438714105	1.5495477766418373	-0.5733531218884595	-0.2540269767124613	1.5136158133686586	-0.5864627836479713	-0.24109942990750016	1.519120241359646	-0.6028145933974264	-0.19687931580561097	1.5366501440662024	-0.5687845544584752	-1.674385110704831	1.890724370113566	1.0332692821320444	-0.24401541419984024	2.0555664785110284	-0.6008220147212434	-1.824268298438745	1.8935461555462603	1.3003252944231152	-0.2338754860274477	1.8857669351819397	-0.48437017400173143	-0.25235219571204554	1.8085329379813255	-0.48544668404889674	-1.5099792602740523	1.8893093933105047	0.7607165836204611	-0.1707373260109258	1.8970517153554984	-0.6894281031426498	-0.18773693481795287	1.818408482596983	-0.6890423104969706
4	0.13333333333333333	-0.21434139987149714	1.817194130148713	-0.5762946742308618	-0.2285332164134978	1.81353750908888	-0.5127653022395527	-0.23251628727109297	1.6752450334311046	-0.492589421015543	-0.20764020311558662	1.5660263831942283	-0.49948442985905317	-0.24151813589566756	1.5265173219959016	-0.5045101073755103				-0.1958075424233134	1.5630145762922651	-0.4896745283001192	-0.2018043495542518	1.818192619574613	-0.6403844869977878	-0.19768177533115783	1.6813331190955576	-0.5965218428544035	-0.20576431438714105	1.5495477766418373	-0.5733531218884595	-0.2540269767124613	1.5136158133686586	-0.5864627836479713	-0.24109942990750016	1.519120241359646	-0.6028145933974264	-0.19687931580561097	1.5366501440662024	-0.5687845544584752	-1.6837441835812457	1.890704390875699	1.0499494288887508	-0.24401541419984024	2.0555664785110284	-0.6008220147212434	-1.8330866812083655	1.89362998416887	1.3170300860468391	-0.2338754860274477	1.8857669351819397	-0.48437017400173143	-0.25235219571204554	1.8085329379813255	-0.48544668404889674	-1.5099554358491936	1.8894597514062255	0.7606192932984159	-0.1707373260109258	1.8970517153554984	-0.6894281031426498	-0.18773693481795287	1.818408482596983	-0.6890423104969706
5	0.16666666666666666	-0.21434139987149714	1.817194130148713	-0.5762946742308618	-0.2285332164134978	1.81353750908888	-0.5127653022395527	-0.23251628727109297	1.6752450334311046	-0.492589421015543	-0.20764020311558662	1.5660263831942283	-0.49948442985905317	-0.24151813589566756	1.5265173219959016	-0.5045101073755103				-0.1958075424233134	1.5630145762922651	-0.4896745283001192	-0.2018043495542518	1.818192619574613	-0.6403844869977878	-0.19768177533115783	1.6813331190955576	-0.5965218428544035	-0.20576431438714105	1.5495477766418373	-0.5733531218884595	-0.2540269767124613	1.5136158133686586	-0.5864627836479713	-0.24109942990750016	1.519120241359646	-0.6028145933974264	-0.19687931580561097	1.5366501440662024	-0.5687845544584752	-1.683753163401574	1.890812104503442	1.0499134524099938	-0.24401541419984024	2.0555664785110284	-0.6008220147212434	-1.8420070800831312	1.8937691779880852	1.3339056197014043	-0.2338754860274477	1.8857669351819397	-0.48437017400173143	-0.25235219571204554	1.8085329379813255	-0.48544668404889674	-1.5099316114243349	1.8896101095019462	0.7605220029763707	-0.1707373260109258	1.8970517153554984	-0.6894281031426498	-0.18773693481795287	1.818408482596983	-0.6890423104969706
6	0.2	-0.21434139987149714	1.817194130148713	-0.5762946742308618	-0.2285332164134978	1.81353750908888	-0.5127653022395527	-0.23251628727109297	1.6752450334311046	-0.492589421015543	-0.20764020311558662	1.5660263831942283	-0.49948442985905317	-0.24151813589566756	1.5265173219959016	-0.5045101073755103				-0.1958075424233134	1.5630145762922651	-0.4896745283001192	-0.2018043495542518	1.818192619574613	-0.6403844869977878	-0.19768177533115783	1.6813331190955576	-0.5965218428544035	-0.20576431438714105	1.5495477766418373	-0.5733531218884595	-0.2540269767124613	1.5136158133686586	-0.5864627836479713	-0.24109942990750016	1.519120241359646	-0.6028145933974264	-0.19687931580561097	1.5366501440662024	-0.5687845544584752	-1.6838376283270247	1.8909135055476363	1.0500263094153999	-0.24401541419984024	2.0555664785110284	-0.6008220147212434	-1.8422496921003295	1.8937390871518975	1.3343601003617163	-0.2338754860274477	1.8857669351819397	-0.48437017400173143	-0.25235219571204554	1.8085329379813255	-0.48544668404889674	-1.5099077869994761	1.889760467597667	0.7604247126543255	-0.1707373260109258	1.8970517153554984	-0.6894281031426498	-0.18773693481795287	1.818408482596983	-0.6890423104969706
7	0.23333333333333334	-0.21434139987149714	1.817194130148713	-0.5762946742308618	-0.2285332164134978	1.81353750908888	-0.5127653022395527	-0.23251628727109297	1.6752450334311046	-0.492589421015543	-0.20764020311558662	1.5660263831942283	-0.49948442985905317	-0.24151813589566756	1.5265173219959016	-0.5045101073755103				-0.1958075424233134	1.5630145762922651	-0.4896745283001192	-0.2018043495542518	1.818192619574613	-0.6403844869977878	-0.19768177533115783	1.6813331190955576	-0.5965218428544035	-0.20576431438714105	1.5495477766418373	-0.5733531218884595	-0.2540269767124613	1.5136158133686586	-0.5864627836479713	-0.24109942990750016	1.519120241359646	-0.6028145933974264	-0.19687931580561097	1.5366501440662024	-0.5687845544584752	-1.6829792165787965	1.891011725907429	1.0491947018297223	-0.24401541419984024	2.0555664785110284	-0.6008220147212434	-1.840484106143407	1.8917517147949772	1.331882753901572	-0.2338754860274477	1.8857669351819397	-0.48437017400173143	-0.25235219571204554	1.8085329379813255	-0.48544668404889674	-1.5167805093749456	1.8900532579107143	0.7736613290019816	-0.1707373260109258	1.8970517153554984	-0.6894281031426498	-0.18773693481795287	1.818408482596983	-0.6890423104969706
8	0.26666666666666666	-0.21434139987149714	1.817194130148713	-0.5762946742308618	-0.2285332164134978	1.81353750908888	-0.5127653022395527	-0.23251628727109297	1.6752450334311046	-0.492589421015543	-0.20764020311558662	1.5660263831942283	-0.49948442985905317	-0.24151813589566756	1.5265173219959016	-0.5045101073755103				-0.1958075424233134	1.5630145762922651	-0.4896745283001192	-0.2018043495542518	1.818192619574613	-0.6403844869977878	-0.19768177533115783	1.6813331190955576	-0.5965218428544035	-0.20576431438714105	1.5495477766418373	-0.5733531218884595	-0.2540269767124613	1.5136158133686586	-0.5864627836479713	-0.24109942990750016	1.519120241359646	-0.6028145933974264	-0.19687931580561097	1.5366501440662024	-0.5687845544584752	-1.6819058507226512	1.891294332042592	1.0479692289508893	-0.24401541419984024	2.0555664785110284	-0.6008220147212434	-1.8400419802441845	1.8918182840842752	1.3312679592821688	-0.2338754860274477	1.8857669351819397	-0.48437017400173143	-0.25235219571204554	1.8085329379813255	-0.48544668404889674	-1.5167591908746465	1.8904966723432557	0.7735732175269675	-0.1707373260109258	1.8970517153554984	-0.6894281031426498	-0.18773693481795287	1.818408482596983	-0.6890423104969706
